<?xml version="1.0" encoding="utf-8"?>
<!-- Generator: Adobe Illustrator 22.0.1, SVG Export Plug-In . SVG Version: 6.00 Build 0)  -->
<svg version="1.1" id="Layer_1" xmlns="http://www.w3.org/2000/svg" xmlns:xlink="http://www.w3.org/1999/xlink" x="0px" y="0px"
	 viewBox="0 0 120 35" style="enable-background:new 0 0 120 35;" xml:space="preserve">
<style type="text/css">
	.st0{fill:#0D72B9;}
	.st1{fill:#FFFFFF;}
</style>
<path class="st0" d="M102,17.9c-0.2-0.5-0.6-0.9-1.2-1.2c-0.4-0.2-0.8-0.2-1.2-0.2c-0.1,0-0.2,0-0.2,0c-0.4,0-0.7,0.1-1,0.3
	c0-0.2,0-0.4,0-0.5c0-0.9-0.2-1.8-0.6-2.5c-0.4-0.8-1-1.4-1.7-1.8c-0.7-0.4-1.5-0.6-2.4-0.6c0,0-0.1,0-0.1,0c-0.9,0-1.8,0.2-2.7,0.7
	c-0.3,0.2-0.7,0.3-1,0.5c0.4-0.4,0.7-0.9,1-1.3c0.7-0.9,1.2-1.8,1.5-2.6C92.8,7.8,93,7,93.1,6.3c0-0.8-0.1-1.5-0.4-2.1
	c-0.5-1.2-1.3-1.5-1.8-1.6c-0.1,0-0.3,0-0.4,0c-0.5,0-1.2,0.2-1.9,0.6c-1,0.5-2,1.2-3,2.1c-1,0.9-2.1,2-3.1,3.3
	c-1,1.2-2,2.6-2.9,4.1c-0.1,0.1-0.2,0.3-0.3,0.4c-0.1-0.2-0.2-0.4-0.3-0.5c-0.3-0.3-0.8-0.8-1.7-0.8c-0.1,0-0.2,0-0.3,0
	c-0.5,0-0.9,0.1-1.4,0.3c-0.1,0.1-0.3,0.1-0.4,0.2c-0.2-0.1-0.5-0.2-0.7-0.3c-0.4-0.1-0.8-0.2-1.3-0.2c0,0-0.1,0-0.1,0
	c-0.7,0-1.4,0.2-2.2,0.4c-0.8,0.3-1.6,0.7-2.4,1.2c-0.7,0.4-1.3,1-1.9,1.6c0.4-1.1,0-1.8-0.3-2.1c-0.3-0.3-0.8-0.8-1.7-0.8
	c-0.1,0-0.2,0-0.3,0c-0.5,0-0.9,0.1-1.4,0.3c-0.1,0.1-0.3,0.1-0.4,0.2c-0.2-0.1-0.5-0.2-0.7-0.3c-0.4-0.1-0.8-0.2-1.3-0.2
	c0,0-0.1,0-0.1,0c-0.7,0-1.4,0.2-2.2,0.4c-0.8,0.3-1.6,0.7-2.4,1.2c-0.8,0.5-1.6,1.2-2.3,2c-0.2,0.2-0.3,0.4-0.5,0.5
	c0.1-0.6-0.1-1.3-0.3-1.8c0,0,0,0,0,0c-0.2-0.5-0.5-0.9-0.9-1.3c-0.5-0.5-1.1-0.8-1.8-0.9c-0.1,0-0.2,0-0.4,0
	c-0.5,0-1.1,0.1-1.7,0.4c-0.2,0.1-0.4,0.2-0.6,0.3c-0.4-0.3-0.8-0.5-1.4-0.7c-0.3-0.1-0.5-0.1-0.8-0.1c-0.3,0-0.5,0-0.8,0.1
	c-1.1,0.2-1.5,0.9-1.6,1.3c-0.3,0.6-0.6,1.4-1,2.4c-0.4,1-0.8,1.9-1.2,2.8c0,0.1,0,0.1-0.1,0.2c-0.3,0.4-0.5,0.7-0.7,0.9
	c-0.1,0.2-0.3,0.3-0.5,0.6c0.1-0.2,0.2-0.4,0.3-0.6l1-1.9c0.4-0.7,0.7-1.3,0.9-1.8c0.5-0.8,0.5-1.6,0-2.3c-0.1-0.1-0.1-0.2-0.2-0.2
	c0,0,0,0,0,0c0.5-0.1,1-0.3,1.5-0.6c0,0,0.1-0.1,0.1-0.1c0.2-0.1,0.4-0.3,0.6-0.6c0.3-0.3,0.5-0.6,0.7-0.9c0,0,0,0,0,0
	c0.6-1.1,0.3-1.9,0-2.3c-0.3-0.5-0.9-0.9-1.5-1.1c-0.3-0.1-0.6-0.1-1-0.1c-0.2,0-0.5,0-0.7,0.1c-0.7,0.2-1.3,0.6-1.8,1.2
	c0,0,0,0,0,0c-0.1,0.2-0.3,0.5-0.4,0.7c-0.2,0.3-0.3,0.5-0.4,0.7c-0.5,0.8-0.5,1.5-0.2,2.1c0,0.1,0.1,0.1,0.1,0.2
	c-0.1,0-0.1,0-0.2,0.1c-0.7,0.2-1.3,0.7-1.7,1.3c-0.2,0.3-0.4,0.7-0.7,1.1c-0.2,0.4-0.5,0.9-0.8,1.4c-0.2,0.3-0.4,0.7-0.5,1
	c-0.1-0.2-0.2-0.3-0.4-0.4c-0.1-0.1-0.1-0.1-0.2-0.2c0.2-0.2,0.4-0.4,0.6-0.6c0.4-0.5,0.8-1,1.1-1.5c0.3-0.6,0.5-1.3,0.5-2
	c0-0.8-0.1-1.5-0.5-2.3c-0.4-0.9-1.1-1.6-2-2.1c-0.8-0.4-1.7-0.7-2.7-0.8c-0.5-0.1-1-0.1-1.5-0.1c-0.5,0-1.1,0-1.6,0.1
	c-1,0.1-2.1,0.3-3.1,0.6c-1.5,0.4-2.8,1-3.9,1.8c-1.1,0.8-2,1.7-2.6,2.6c-0.7,1-1,2.1-1,3.1c0,0.8,0.4,2,1.9,2.9
	c0.2,0.1,0.5,0.2,0.7,0.2c0.2,0,0.5-0.1,0.7-0.2c0.4-0.3,0.7-0.7,0.7-1.2c0-0.3,0.1-0.6,0.2-0.9c0.2-0.3,0.4-0.6,0.7-0.9
	c-0.3,0.8-0.7,1.8-1,2.7c-0.5,1.4-0.9,3-1.3,4.7c-0.4,1.7-0.6,3.5-0.8,5.4c-0.1,1.2,0.4,1.8,0.8,2c0.3,0.2,0.6,0.3,1,0.3
	c0.4,0,0.7-0.1,1.1-0.3c0.4-0.3,0.7-0.6,1.1-1.2c0-0.1,0.1-0.1,0.1-0.2c0.4,0.3,0.9,0.6,1.7,0.6l0.1,0c0.7,0,1.6-0.2,2.4-0.5
	c0.8-0.3,1.7-0.8,2.6-1.4c0.9-0.6,1.7-1.2,2.5-1.9c0.1-0.1,0.2-0.1,0.2-0.2c0.6,1.2,1.8,1.8,3.3,1.8c0,0,0.1,0,0.1,0
	c0.6,0,1.1-0.1,1.6-0.2c0.5-0.1,1-0.3,1.4-0.5c0.3,0.2,0.6,0.4,1,0.6c0.3,0.1,0.6,0.1,1,0.1c0.3,0,0.7,0,1-0.1
	c0.8-0.2,1.4-0.7,1.7-1.5c0.1-0.2,0.2-0.5,0.4-0.9c0.1-0.3,0.2-0.5,0.3-0.9c0.1,0.4,0.2,0.8,0.4,1.1c0.3,0.5,0.6,1,1.1,1.3
	c0.5,0.4,1.2,0.6,1.9,0.6h0c0.6,0,1.3-0.2,2.1-0.5c0.6-0.2,1.1-0.6,1.8-1.1c0.1,0.1,0.3,0.3,0.4,0.4c-0.6,0.3-1.2,0.7-1.7,1.2
	c-0.6,0.6-1,1.3-1.3,2.3c-0.4,1.3-0.1,2.5,0.8,3.3c0.8,0.7,1.8,1.1,3,1.1l0,0c1.1,0,2.2-0.3,3.4-1c1.2-0.7,2.2-1.8,3-3.3l1-2.1
	c0.7-0.3,1.5-0.7,2.2-1c0.7-0.4,1.3-0.7,1.9-1.2c0.3,0.3,0.6,0.6,1,0.9c0.7,0.4,1.5,0.6,2.4,0.6c0,0,0.1,0,0.1,0
	c1.3,0,2.2-0.3,2.9-0.7c0.1-0.1,0.3-0.2,0.4-0.3c0.1,0,0.1,0.1,0.2,0.1c0.5,0.4,1.2,0.6,1.9,0.7c0,0,0.1,0,0.1,0
	c0.6,0,1.3-0.2,2-0.5c0.6-0.3,1.2-0.7,1.9-1.3c0.4,0.5,0.9,0.9,1.6,1.2c0.7,0.3,1.4,0.5,2.2,0.5c0,0,0.1,0,0.1,0
	c0.7,0,1.5-0.2,2.4-0.5c0.8-0.3,1.5-0.8,2.3-1.4c0.3,0.4,0.7,0.7,1.2,1c0.7,0.4,1.5,0.6,2.4,0.6c0,0,0.1,0,0.1,0
	c1.2,0,2.3-0.4,3.5-1c0.8-0.5,1.6-1.1,2.3-1.8c0.2,0,0.5,0.1,0.7,0.1c0.3,0,0.7,0,1-0.1c0.8-0.2,1.5-0.4,2.2-0.8
	c0.7-0.4,1.2-0.8,1.7-1.3c0.5-0.5,0.8-0.9,1.1-1.3C102.3,19.3,102.3,18.6,102,17.9z M68.8,21.4c0-0.1,0-0.1,0-0.2
	c0.1-0.3,0.2-0.7,0.4-1.2c0.2-0.4,0.5-0.9,0.8-1.4c0.4-0.5,0.7-0.9,1.1-1.2c0.3-0.3,0.7-0.6,1-0.8c0,0,0.1-0.1,0.1-0.1
	c0,0,0,0.1,0,0.1c-0.1,0.4-0.2,0.8-0.4,1.2c-0.2,0.4-0.5,0.9-0.8,1.3c0,0,0,0,0,0c-0.3,0.5-0.7,0.9-1.1,1.3c-0.3,0.3-0.7,0.6-1,0.8
	C68.9,21.3,68.9,21.4,68.8,21.4z M56.1,21.7c0-0.1,0-0.1,0-0.2c0.1-0.3,0.2-0.7,0.4-1.2c0.2-0.4,0.5-0.9,0.8-1.4
	c0.4-0.5,0.7-0.9,1.1-1.2c0.3-0.3,0.7-0.6,1-0.8c0,0,0.1-0.1,0.1-0.1c0,0,0,0.1,0,0.1c-0.1,0.4-0.2,0.8-0.4,1.2
	c-0.2,0.4-0.5,0.9-0.8,1.3c0,0,0,0,0,0c-0.3,0.5-0.7,0.9-1.1,1.3c-0.3,0.3-0.7,0.6-1,0.8C56.2,21.6,56.1,21.7,56.1,21.7z M81.8,20.1
	c0.7-0.6,1.4-1.2,2.1-1.8c0.7-0.6,1.4-1.3,2.2-2c0,0,0.1,0,0.1-0.1c-0.4,0.6-0.7,1.1-0.9,1.7c-0.3,0.4-0.7,0.9-1.2,1.4
	c-0.5,0.5-1,1-1.5,1.5c-0.6,0.4-0.8,0.5-0.9,0.5c0-0.1-0.1-0.2-0.1-0.4C81.7,20.6,81.7,20.3,81.8,20.1z M90.3,19.2
	C90.3,19.2,90.4,19.2,90.3,19.2c0.1-0.4,0.3-0.7,0.6-1c0.3-0.3,0.5-0.6,0.8-0.9c0.3-0.2,0.5-0.4,0.8-0.5c0.2-0.1,0.4-0.2,0.5-0.2
	l0,0c0,0,0,0,0,0c0,0,0,0,0,0c0.1,0.3,0,0.8-0.2,1.4c-0.2,0.4-0.4,0.8-0.6,1.1c-0.2,0.3-0.5,0.6-0.7,0.9c-0.3,0.2-0.5,0.4-0.8,0.5
	c-0.2,0.1-0.4,0.2-0.5,0.2l0,0c0,0,0,0,0,0c0,0,0,0,0,0C90,20.3,90.1,19.8,90.3,19.2z M25.1,21.1c0.2,0,0.3,0.1,0.5,0.1
	c0.1,0,0.1,0,0.2,0c-0.3,0.3-0.7,0.5-1,0.8C24.9,21.6,25,21.4,25.1,21.1z M30.5,13.6c-0.1,0.4-0.3,0.8-0.8,1.3
	c-0.5,0.5-1.2,0.9-2.1,1.2c-0.2,0.1-0.4,0.2-0.6,0.2c0.1-0.1,0.1-0.2,0.2-0.3c0.5-1.1,1.1-2.2,1.7-3.3c0.1,0,0.2,0,0.3,0
	c0.1,0,0.2,0,0.3,0c0.5,0,0.8,0.1,0.9,0.3C30.5,13.1,30.6,13.3,30.5,13.6z"/>
<g>
	<path class="st1" d="M50.6,30.2c0.2,0.2,0.5,0.4,0.9,0.4c0,0,0,0,0,0c-0.6-0.3-0.9-0.9-0.8-1.5c0,0.1-0.1,0.2-0.1,0.3l0,0
		C50.3,29.9,50.5,30.1,50.6,30.2z"/>
	<path class="st1" d="M41.5,19.6c0.2-0.2,0.4-0.4,0.7-0.4c0.3,0,0.5,0,0.8,0.1c0.2,0.1,0.4,0.3,0.5,0.5c0.1,0.2,0.1,0.4-0.1,0.7
		c-0.3,0.4-0.6,0.8-1,1.3c-0.4,0.5-1,1.2-1.7,1.9c-0.4,0.4-0.9,0.8-1.2,1.1c-0.4,0.3-0.7,0.6-1.1,0.7c-0.4,0.2-0.8,0.3-1.2,0.4
		c-0.4,0.1-0.8,0.1-1.3,0.2c-1.4,0-2.2-0.5-2.4-1.6c-0.3-1.1,0.1-2.6,1.2-4.5c0.2-0.4,0.5-0.9,0.7-1.4c0.3-0.5,0.5-1,0.8-1.5
		c0.3-0.5,0.5-0.9,0.8-1.4c0.2-0.4,0.5-0.8,0.6-1.1c0.2-0.4,0.5-0.6,0.9-0.7c0.4-0.1,0.7-0.1,1,0c0.3,0.1,0.5,0.3,0.7,0.5
		c0.2,0.3,0.1,0.6-0.1,0.9c-0.3,0.5-0.6,1.1-1,1.8c-0.4,0.7-0.7,1.3-1,1.9c-0.3,0.5-0.6,1.1-0.8,1.5c-0.3,0.5-0.5,0.9-0.7,1.3
		c-0.2,0.4-0.3,0.7-0.3,1c-0.1,0.3,0,0.5,0.1,0.6c0.1,0.1,0.3,0.2,0.6,0.1c0.3-0.1,0.5-0.2,0.8-0.4c0.3-0.2,0.6-0.4,0.9-0.7
		c0.3-0.2,0.6-0.5,0.8-0.7c0.4-0.5,0.8-0.9,1.1-1.2C40.9,20.5,41.2,20.1,41.5,19.6z M42.9,10.6c-0.1,0.2-0.3,0.4-0.5,0.7
		c-0.2,0.2-0.4,0.4-0.5,0.5c-0.3,0.2-0.7,0.4-1.1,0.5c-0.4,0.1-0.7,0.1-0.9,0.1c-0.3,0-0.4-0.2-0.5-0.4c-0.1-0.2,0-0.5,0.2-0.9
		c0.1-0.2,0.2-0.4,0.3-0.6c0.2-0.3,0.3-0.5,0.4-0.7c0.2-0.3,0.5-0.5,0.9-0.6c0.4-0.1,0.7-0.1,1,0c0.3,0.1,0.6,0.3,0.7,0.5
		C43.2,9.9,43.1,10.2,42.9,10.6z"/>
	<path class="st1" d="M43.9,14.1c0.1-0.2,0.3-0.4,0.7-0.5c0.3-0.1,0.7-0.1,1,0c0.3,0.1,0.6,0.2,0.8,0.4c0.2,0.2,0.3,0.5,0.1,0.8
		l-0.2,0.5l0.2-0.1c0.7-0.7,1.4-1.1,1.9-1.3c0.5-0.2,1-0.3,1.4-0.3c0.4,0,0.7,0.2,1,0.5c0.3,0.3,0.5,0.6,0.6,0.9
		c0.3,0.5,0.3,1.1,0.1,1.8c-0.2,0.7-0.5,1.4-1,2.3c-0.3,0.6-0.6,1.2-0.9,1.7c-0.3,0.5-0.6,1.1-0.9,1.6c-0.2,0.3-0.2,0.5-0.2,0.6
		c0,0.1,0.1,0.1,0.2,0.1c0.1,0,0.3-0.1,0.4-0.2c0.2-0.1,0.3-0.2,0.4-0.3c0.6-0.5,1.1-1,1.7-1.6c0.6-0.6,1-1.1,1.3-1.6
		c0.2-0.2,0.4-0.4,0.7-0.4c0.3,0,0.5,0,0.8,0.1c0.2,0.1,0.4,0.3,0.5,0.5c0.1,0.2,0.1,0.4-0.1,0.7c-0.1,0.2-0.3,0.4-0.5,0.7
		c-0.2,0.3-0.5,0.6-0.8,1c-0.3,0.4-0.6,0.7-1,1.1c-0.4,0.4-0.7,0.7-1.1,1.1c-0.7,0.7-1.3,1.1-1.9,1.4c-0.6,0.3-1.1,0.4-1.5,0.4
		c-0.4,0-0.8-0.1-1.1-0.4c-0.3-0.2-0.5-0.5-0.7-0.9c-0.3-0.5-0.3-1.1-0.1-1.8c0.2-0.7,0.5-1.4,0.9-2.3c0.1-0.2,0.2-0.5,0.4-0.8
		c0.2-0.3,0.3-0.6,0.5-0.9c0.2-0.3,0.3-0.6,0.5-0.9c0.1-0.3,0.3-0.5,0.4-0.7c0.2-0.3,0.2-0.5,0.2-0.6c0-0.1-0.1-0.1-0.3-0.1
		c-0.1,0-0.3,0.1-0.5,0.2c-0.2,0.1-0.4,0.2-0.5,0.3c-0.4,0.3-0.9,0.6-1.3,1c-0.4,0.4-0.9,0.7-1.2,1.1c-0.3,0.6-0.5,1.3-0.8,1.9
		c-0.3,0.6-0.5,1.3-0.7,1.8c-0.2,0.6-0.4,1.1-0.6,1.5c-0.2,0.4-0.3,0.7-0.4,0.9c-0.2,0.4-0.5,0.6-0.9,0.7c-0.4,0.1-0.8,0.1-1.1,0
		c-0.4-0.1-0.6-0.3-0.8-0.7c-0.2-0.3-0.2-0.8,0.1-1.3c0.2-0.5,0.5-1.3,0.9-2.1c0.4-0.9,0.8-1.8,1.2-2.8c0.4-1,0.8-1.9,1.2-2.8
		C43.2,15.6,43.6,14.8,43.9,14.1z"/>
	<path class="st1" d="M57.3,25.2c-0.3,0.1-0.6,0.3-1,0.4c-0.4,0.1-0.8,0.2-1.3,0.2c-0.7,0-1.3-0.1-1.8-0.4C52.7,25,52.3,24.6,52,24
		c-0.3-0.6-0.4-1.3-0.3-2.1c0.1-0.8,0.3-1.7,0.9-2.7c0.5-1,1.1-1.8,1.8-2.6c0.7-0.7,1.4-1.3,2.1-1.8c0.7-0.5,1.4-0.8,2.1-1.1
		c0.7-0.2,1.3-0.4,1.8-0.4c0.3,0,0.6,0,0.9,0.1c0.3,0.1,0.5,0.2,0.7,0.3c0.2,0.1,0.4,0.3,0.6,0.5c0.2-0.3,0.4-0.6,0.8-0.7
		c0.4-0.2,0.7-0.2,1.1-0.2c0.3,0,0.6,0.2,0.8,0.4c0.2,0.2,0.2,0.5,0,0.9c-0.2,0.4-0.5,1-0.8,1.6c-0.3,0.6-0.6,1.3-1,1.9
		c-0.3,0.7-0.6,1.3-0.9,1.8c-0.3,0.6-0.5,1-0.7,1.3l-1,2.1c0.8-0.6,1.6-1.3,2.5-2.1c0.5-0.4,0.9-0.8,1.1-1.1
		c0.2-0.3,0.5-0.7,0.8-1.2c0.2-0.2,0.4-0.4,0.7-0.4c0.3,0,0.5,0,0.8,0.1c0.2,0.1,0.4,0.3,0.5,0.5c0.1,0.2,0.1,0.4-0.1,0.7
		c-0.1,0.2-0.3,0.4-0.5,0.7c-0.2,0.3-0.5,0.7-0.8,1c-0.3,0.4-0.6,0.7-1,1.1c-0.4,0.4-0.7,0.7-1.1,1c-0.6,0.5-1.3,1-2.1,1.4
		c-0.8,0.4-1.7,0.8-2.5,1.2L57.9,29c-0.6,1.3-1.4,2.2-2.4,2.7c-1,0.5-1.9,0.8-2.8,0.8c-0.9,0-1.6-0.3-2.1-0.7
		c-0.5-0.5-0.7-1.1-0.4-1.9c0.2-0.7,0.5-1.3,0.9-1.7c0.4-0.4,1-0.8,1.6-1.1c0.6-0.3,1.3-0.6,2.1-0.8c0.8-0.2,1.6-0.6,2.5-0.9
		L57.3,25.2z M55.8,27.8c-0.9,0.4-1.7,0.8-2.3,1.1c-0.6,0.3-1,0.7-1,1c0,0.2,0,0.4,0.2,0.5c0.2,0.1,0.4,0.1,0.7,0
		c0.3-0.1,0.6-0.2,1-0.5c0.4-0.3,0.7-0.7,1-1.2L55.8,27.8z M59.4,20.3c0.4-0.5,0.7-1,0.9-1.6c0.2-0.5,0.4-1,0.5-1.5
		c0.1-0.4,0.1-0.8,0.1-1.2c0-0.3-0.2-0.6-0.4-0.7c-0.2-0.2-0.5-0.2-0.8-0.1c-0.3,0.1-0.7,0.2-1.1,0.5c-0.4,0.2-0.8,0.6-1.2,1
		c-0.4,0.4-0.8,0.9-1.2,1.4c-0.4,0.5-0.7,1.1-1,1.6c-0.3,0.5-0.4,1-0.5,1.4c-0.1,0.4-0.1,0.8-0.1,1.2c0,0.3,0.2,0.6,0.4,0.7
		c0.2,0.2,0.5,0.2,0.8,0.1c0.3-0.1,0.7-0.2,1.1-0.5c0.4-0.3,0.8-0.6,1.2-1C58.6,21.3,59,20.9,59.4,20.3z"/>
	<path class="st1" d="M78,18.8c0.2-0.2,0.4-0.4,0.7-0.4c0.3,0,0.5,0,0.8,0.1c0.2,0.1,0.4,0.3,0.5,0.5c0.1,0.2,0.1,0.4-0.1,0.7
		c-0.1,0.2-0.3,0.4-0.5,0.7c-0.2,0.3-0.5,0.6-0.8,1c-0.3,0.4-0.6,0.7-1,1.1c-0.3,0.4-0.7,0.7-1.1,1.1c-0.7,0.7-1.3,1.1-1.9,1.4
		c-0.6,0.3-1,0.4-1.5,0.4c-0.4,0-0.8-0.1-1.1-0.4c-0.3-0.2-0.6-0.5-0.8-0.8c-0.4,0.3-0.9,0.6-1.4,0.9c-0.5,0.3-1.2,0.5-2.2,0.5
		c-0.7,0-1.3-0.1-1.8-0.4c-0.5-0.3-0.9-0.8-1.2-1.3c-0.3-0.6-0.4-1.3-0.3-2.1c0.1-0.8,0.3-1.7,0.9-2.7c0.5-1,1.1-1.8,1.8-2.6
		c0.7-0.7,1.4-1.3,2.1-1.8c0.7-0.5,1.4-0.8,2.1-1.1c0.7-0.2,1.3-0.4,1.8-0.4c0.3,0,0.6,0,0.9,0.1c0.3,0.1,0.5,0.2,0.7,0.3
		c0.2,0.1,0.4,0.3,0.6,0.5c0.2-0.3,0.4-0.6,0.8-0.7c0.4-0.2,0.7-0.2,1.1-0.2c0.3,0,0.6,0.2,0.8,0.4c0.2,0.2,0.2,0.5,0,0.9
		c-0.2,0.4-0.5,1-0.8,1.6c-0.3,0.6-0.6,1.3-1,2c-0.3,0.7-0.6,1.3-0.9,1.9c-0.3,0.6-0.5,1-0.7,1.3c-0.2,0.3-0.2,0.5-0.2,0.6
		c0,0.1,0.2,0.2,0.3,0.2c0.2,0,0.4-0.1,0.6-0.2c0.2-0.1,0.5-0.3,0.7-0.6c0.4-0.5,0.8-0.9,1.1-1.2C77.4,19.6,77.7,19.2,78,18.8z
		 M72.1,20c0.4-0.5,0.7-1,0.9-1.6c0.2-0.5,0.4-1,0.5-1.5c0.1-0.4,0.1-0.8,0.1-1.2c0-0.3-0.2-0.6-0.4-0.7c-0.2-0.2-0.5-0.2-0.8-0.1
		c-0.3,0.1-0.7,0.2-1.1,0.5c-0.4,0.2-0.8,0.6-1.2,1c-0.4,0.4-0.8,0.9-1.2,1.4c-0.4,0.5-0.7,1.1-1,1.6c-0.3,0.5-0.4,1-0.5,1.4
		c-0.1,0.4-0.1,0.8-0.1,1.2c0,0.3,0.2,0.6,0.4,0.7c0.2,0.2,0.5,0.2,0.8,0.1c0.3-0.1,0.7-0.2,1.1-0.5c0.4-0.3,0.8-0.6,1.2-1
		C71.3,21,71.7,20.6,72.1,20z"/>
	<path class="st1" d="M87.4,13.2c-0.7,0.7-1.4,1.3-2.2,2.1c-0.8,0.7-1.5,1.4-2.2,2c-0.8,0.7-1.6,1.4-2.4,2.1c-0.2,0.5-0.3,1-0.3,1.6
		c0,0.5,0.1,1,0.4,1.3c0.2,0.3,0.6,0.5,1.1,0.5c0.5,0,1.1-0.3,1.8-0.8c0.6-0.5,1.1-1,1.7-1.6c0.5-0.6,1-1.2,1.3-1.6
		c0.2-0.2,0.4-0.4,0.7-0.4c0.3,0,0.5,0,0.8,0.1c0.2,0.1,0.4,0.3,0.5,0.5c0.1,0.2,0.1,0.4-0.1,0.7c-0.1,0.2-0.3,0.4-0.5,0.7
		c-0.2,0.3-0.5,0.6-0.7,1c-0.3,0.4-0.6,0.7-1,1.1c-0.4,0.4-0.7,0.7-1.1,1.1c-0.7,0.7-1.4,1.1-2.1,1.4c-0.7,0.3-1.4,0.4-2,0.4
		c-0.6,0-1.1-0.1-1.6-0.4c-0.5-0.2-0.9-0.5-1.1-0.9c-0.3-0.4-0.5-0.8-0.7-1.4c-0.1-0.5-0.1-1-0.1-1.6c0.1-0.5,0.2-1.1,0.3-1.6
		c0.1-0.5,0.3-1,0.5-1.5c0.7-1.6,1.5-3.2,2.4-4.6c0.9-1.5,1.8-2.8,2.8-4c1-1.2,2-2.2,2.9-3.1c1-0.9,1.9-1.5,2.7-2
		c0.6-0.3,1.1-0.5,1.4-0.4c0.3,0.1,0.6,0.3,0.8,0.8c0.2,0.4,0.3,0.9,0.3,1.5c0,0.5-0.2,1.2-0.5,1.9c-0.3,0.7-0.8,1.5-1.4,2.3
		C89.2,11.3,88.4,12.2,87.4,13.2z M89.2,6.7c-1.1,0.9-2,1.8-2.8,2.7c-0.8,0.9-1.4,1.8-1.9,2.5c-0.6,0.9-1.1,1.8-1.5,2.6
		c1.3-1.2,2.4-2.4,3.4-3.5c0.4-0.4,0.8-0.9,1.2-1.4c0.4-0.5,0.7-0.9,1-1.3c0.3-0.4,0.5-0.7,0.6-1.1C89.2,7.1,89.2,6.9,89.2,6.7z"/>
	<path class="st1" d="M98.9,18.3c0.2-0.2,0.4-0.4,0.7-0.4c0.3,0,0.5,0,0.8,0.1c0.2,0.1,0.4,0.3,0.5,0.5c0.1,0.2,0.1,0.5-0.1,0.7
		c-0.2,0.3-0.5,0.7-0.9,1.1c-0.4,0.4-0.9,0.8-1.4,1.1c-0.6,0.3-1.1,0.5-1.8,0.7c-0.6,0.1-1.2,0.1-1.8-0.1c-0.8,0.9-1.6,1.6-2.5,2.1
		c-0.9,0.5-1.9,0.8-2.8,0.8c-0.7,0-1.3-0.1-1.8-0.4c-0.5-0.3-0.9-0.7-1.2-1.3C86.1,22.7,86,22,86,21.3c0-0.7,0.1-1.5,0.4-2.4
		c0.3-0.8,0.7-1.6,1.2-2.4c0.5-0.7,1.1-1.4,1.8-2c0.7-0.6,1.3-1,2.1-1.4c0.7-0.3,1.5-0.5,2.2-0.5c0.7,0,1.3,0.1,1.9,0.4
		c0.5,0.3,0.9,0.7,1.2,1.3c0.3,0.5,0.4,1.2,0.4,1.9c0,0.7-0.1,1.5-0.4,2.4c-0.1,0.2-0.2,0.4-0.2,0.6c-0.1,0.2-0.2,0.4-0.3,0.6
		c0.4,0,0.9-0.1,1.4-0.4C98.1,19.1,98.5,18.7,98.9,18.3z M94.1,18.6c0.4-0.9,0.5-1.7,0.3-2.4c-0.2-0.7-0.7-1-1.4-1
		c-0.3,0-0.7,0.1-1.1,0.3c-0.4,0.2-0.8,0.4-1.1,0.7c-0.4,0.3-0.7,0.7-1,1.1c-0.3,0.4-0.6,0.9-0.7,1.3c-0.4,0.9-0.5,1.7-0.2,2.4
		c0.2,0.7,0.7,1,1.4,1c0.3,0,0.7-0.1,1.1-0.3c0.4-0.2,0.8-0.4,1.1-0.7c0.4-0.3,0.7-0.7,1-1.1C93.7,19.5,93.9,19.1,94.1,18.6z"/>
	<path class="st1" d="M35.5,19c0.2,0,0.4,0,0.5,0.1c0.1,0.1,0.2,0.2,0.2,0.3c0,0.1-0.1,0.2-0.2,0.3c-0.1,0.1-0.3,0.2-0.5,0.2
		c-0.6,0.1-1.2,0.2-1.7,0.3c0,0.1,0,0.2,0,0.2c0,0.1,0,0.1,0,0.2c-0.1,0.7-0.3,1.5-0.8,2.2c-0.5,0.7-1.1,1.5-1.8,2.1
		c-0.7,0.7-1.5,1.3-2.3,1.8c-0.8,0.5-1.6,0.9-2.4,1.2c-0.8,0.3-1.4,0.4-2,0.4c-0.6,0-1-0.2-1.2-0.6c-0.3-0.5-0.3-1.1,0-1.9
		c0.3-0.7,0.8-1.4,1.5-2.2c0.7-0.7,1.6-1.4,2.6-2.1c1-0.7,2.2-1.3,3.5-1.7c-0.1-0.3-0.3-0.5-0.4-0.7c-0.2-0.2-0.4-0.3-0.6-0.4
		c-0.2-0.1-0.6-0.1-1,0c-0.4,0.1-0.9,0.2-1.5,0.5c-0.7,0.3-1.3,0.4-1.8,0.4c-0.4,0-0.7-0.2-0.7-0.4c0-0.2,0.2-0.5,0.7-0.9
		c0.5-0.4,1.3-0.7,2.4-1.1c1.1-0.4,2-0.9,2.6-1.6c0.6-0.7,1-1.3,1.1-2c0.1-0.6,0-1.2-0.4-1.7c-0.4-0.5-1-0.8-2-0.8
		c-0.2,0-0.5,0-0.7,0c-0.3,0-0.5,0-0.8,0.1l-0.1,0.1c-0.7,1.2-1.4,2.5-2,3.9c-0.6,1.4-1.2,2.7-1.7,4.1c-0.5,1.4-0.9,2.7-1.3,4.1
		c-0.4,1.3-0.7,2.6-0.9,3.8c-0.1,0.5-0.3,0.9-0.5,1.3c-0.2,0.4-0.4,0.6-0.6,0.7c-0.2,0.1-0.4,0.2-0.6,0c-0.2-0.1-0.2-0.4-0.2-0.8
		c0.1-1.9,0.4-3.6,0.7-5.3c0.4-1.6,0.8-3.2,1.2-4.5c0.5-1.4,0.9-2.7,1.4-3.8c0.5-1.1,0.9-2.1,1.3-2.9c-0.8,0.3-1.5,0.6-2.1,1
		c-0.7,0.4-1.2,0.9-1.7,1.3c-0.5,0.5-0.9,1-1.1,1.5c-0.3,0.5-0.4,1-0.4,1.5c-0.8-0.5-1.2-1.1-1.2-1.8c0-0.7,0.2-1.5,0.7-2.3
		c0.5-0.8,1.3-1.5,2.3-2.2c1-0.7,2.2-1.3,3.5-1.6c1-0.3,1.9-0.5,2.9-0.6c1-0.1,1.9-0.1,2.7,0c0.9,0.1,1.6,0.3,2.3,0.7
		c0.7,0.3,1.1,0.8,1.4,1.5c0.3,0.6,0.4,1.1,0.4,1.7c0,0.5-0.2,1-0.4,1.4c-0.2,0.4-0.5,0.8-0.8,1.2c-0.3,0.4-0.7,0.7-1,0.9
		c-0.3,0.3-0.6,0.4-0.8,0.6c-0.2,0.1-0.4,0.2-0.4,0.2c0,0,0.1,0,0.3,0.1c0.2,0,0.4,0.1,0.7,0.3c0.3,0.1,0.5,0.3,0.8,0.6
		c0.3,0.3,0.5,0.6,0.6,1.1c0.3-0.1,0.6-0.1,0.9-0.1C34.8,19.1,35.2,19,35.5,19z M25.9,26c0.2,0.2,0.4,0.2,0.7,0.2
		c0.3,0,0.6-0.1,1-0.3c0.4-0.2,0.8-0.4,1.2-0.7c0.4-0.3,0.8-0.7,1.1-1.1c0.3-0.4,0.6-0.9,0.9-1.4c0.2-0.5,0.4-1.1,0.4-1.7
		c-1.1,0.4-2,0.9-2.7,1.4c-0.7,0.5-1.3,1.1-1.7,1.6c-0.4,0.5-0.7,0.9-0.8,1.3C25.8,25.7,25.8,25.9,25.9,26z"/>
</g>
</svg>
