<?xml version="1.0" encoding="utf-8"?>
<!-- Generator: Adobe Illustrator 22.0.1, SVG Export Plug-In . SVG Version: 6.00 Build 0)  -->
<svg version="1.1" id="Layer_1" xmlns="http://www.w3.org/2000/svg" xmlns:xlink="http://www.w3.org/1999/xlink" x="0px" y="0px"
	 viewBox="0 0 210 60" style="enable-background:new 0 0 210 60;" xml:space="preserve">
<style type="text/css">
	.st0{fill:#0D72B9;}
	.st1{fill:#FFFFFF;}
</style>
<g>
	<path class="st0" d="M166.2,29.5c-0.4-0.8-1-1.4-1.8-1.8c-0.6-0.2-1.2-0.4-1.8-0.4c-0.1,0-0.2,0-0.4,0c-0.6,0-1.1,0.2-1.5,0.5
		c0-0.3,0-0.6,0-0.8c0-1.4-0.3-2.7-0.9-3.8c-0.6-1.2-1.5-2.1-2.6-2.8c-1.1-0.6-2.3-1-3.7-1c-0.1,0-0.1,0-0.2,0c-1.4,0-2.8,0.4-4.2,1
		c-0.5,0.2-1,0.5-1.5,0.8c0.6-0.7,1.1-1.3,1.6-2c1-1.4,1.8-2.7,2.4-3.9c0.6-1.3,0.9-2.5,0.9-3.6c0.1-1.2-0.1-2.3-0.6-3.2
		c-0.8-1.8-2-2.3-2.8-2.5c-0.2,0-0.4-0.1-0.6-0.1c-0.8,0-1.8,0.3-2.9,0.9c-1.5,0.7-3,1.8-4.6,3.3c-1.6,1.4-3.2,3.1-4.7,5
		c-1.5,1.9-3.1,4-4.5,6.3c-0.1,0.2-0.3,0.4-0.4,0.6c-0.1-0.3-0.3-0.6-0.4-0.7c-0.4-0.5-1.2-1.2-2.6-1.3c-0.2,0-0.3,0-0.5,0
		c-0.7,0-1.4,0.2-2.2,0.5c-0.2,0.1-0.4,0.2-0.6,0.3c-0.4-0.2-0.7-0.3-1.1-0.5c-0.6-0.2-1.2-0.3-1.9-0.3c-0.1,0-0.1,0-0.2,0
		c-1,0-2.1,0.2-3.3,0.7c-1.2,0.4-2.4,1-3.7,1.8c-1,0.7-2,1.5-3,2.4c0.6-1.6-0.1-2.8-0.4-3.2c-0.4-0.5-1.2-1.2-2.6-1.3
		c-0.2,0-0.3,0-0.5,0c-0.7,0-1.4,0.2-2.2,0.5c-0.2,0.1-0.4,0.2-0.6,0.3c-0.4-0.2-0.7-0.3-1.1-0.5c-0.6-0.2-1.2-0.3-1.9-0.3
		c-0.1,0-0.1,0-0.2,0c-1,0-2.1,0.2-3.3,0.7c-1.2,0.4-2.4,1-3.7,1.8c-1.2,0.8-2.4,1.8-3.6,3c-0.3,0.3-0.5,0.5-0.7,0.8
		c0.1-1-0.1-1.9-0.5-2.8c0,0,0,0,0,0c-0.4-0.7-0.8-1.4-1.4-1.9c-0.7-0.7-1.7-1.2-2.7-1.3c-0.2,0-0.4,0-0.5,0c-0.8,0-1.7,0.2-2.6,0.6
		c-0.3,0.1-0.6,0.3-0.9,0.5c-0.6-0.5-1.3-0.8-2.1-1c-0.4-0.1-0.8-0.1-1.2-0.1c-0.4,0-0.8,0-1.2,0.1c-1.6,0.3-2.3,1.4-2.5,2
		c-0.4,1-0.9,2.2-1.5,3.6c-0.7,1.5-1.3,2.9-1.9,4.3c0,0.1-0.1,0.2-0.1,0.2c-0.4,0.6-0.8,1-1.1,1.4c-0.2,0.2-0.5,0.5-0.8,0.9
		c0.2-0.3,0.3-0.6,0.5-1l1.5-2.8c0.5-1,1-1.9,1.4-2.7c0.7-1.2,0.7-2.5,0-3.6c-0.1-0.1-0.2-0.2-0.3-0.4c0,0,0,0,0,0
		c0.8-0.2,1.6-0.5,2.3-1c0.1,0,0.1-0.1,0.2-0.1c0.3-0.2,0.6-0.5,1-0.9c0.4-0.4,0.8-0.9,1.1-1.4c0,0,0,0,0-0.1c0.9-1.7,0.4-3,0-3.6
		c-0.5-0.8-1.3-1.4-2.3-1.7c-0.5-0.1-1-0.2-1.5-0.2c-0.4,0-0.8,0-1.1,0.1c-1.1,0.2-2.1,0.9-2.7,1.9c0,0,0,0,0,0.1
		c-0.2,0.3-0.4,0.7-0.6,1.1c-0.2,0.4-0.4,0.8-0.6,1c-0.7,1.2-0.8,2.3-0.4,3.2c0.1,0.1,0.1,0.2,0.2,0.3c-0.1,0-0.2,0.1-0.3,0.1
		c-1.1,0.3-1.9,1-2.6,2.1c-0.3,0.5-0.6,1.1-1,1.7c-0.4,0.7-0.8,1.4-1.2,2.1c-0.3,0.5-0.6,1-0.8,1.5c-0.2-0.2-0.4-0.5-0.6-0.7
		c-0.1-0.1-0.2-0.2-0.3-0.2c0.3-0.3,0.6-0.6,0.9-0.9c0.7-0.7,1.2-1.5,1.6-2.3c0.4-0.9,0.7-1.9,0.8-3c0.1-1.2-0.2-2.4-0.8-3.6
		c-0.7-1.4-1.7-2.5-3.1-3.2c-1.2-0.6-2.6-1.1-4.2-1.3c-0.7-0.1-1.5-0.1-2.3-0.1c-0.8,0-1.6,0-2.4,0.1c-1.6,0.2-3.2,0.5-4.8,1
		c-2.3,0.7-4.3,1.6-6,2.8c-1.7,1.2-3.1,2.6-4.1,4c-1.1,1.6-1.6,3.2-1.5,4.8c0.1,1.3,0.6,3.1,2.8,4.5c0.3,0.2,0.7,0.3,1.1,0.3
		c0.4,0,0.7-0.1,1.1-0.3c0.7-0.4,1.1-1.1,1-1.9c0-0.4,0.1-0.8,0.3-1.3c0.2-0.5,0.6-1,1-1.4c-0.5,1.3-1,2.7-1.5,4.2
		c-0.7,2.2-1.4,4.6-1.9,7.2c-0.6,2.6-1,5.4-1.2,8.3c-0.2,1.8,0.6,2.7,1.2,3.1c0.4,0.3,1,0.5,1.5,0.5c0.6,0,1.1-0.2,1.6-0.5
		c0.6-0.4,1.1-1,1.6-1.8c0.1-0.1,0.1-0.2,0.2-0.3c0.6,0.5,1.4,0.8,2.7,0.9l0.1,0c1.1,0,2.4-0.3,3.7-0.8c1.3-0.5,2.6-1.2,4-2.1
		c1.4-0.9,2.6-1.9,3.8-3c0.1-0.1,0.2-0.2,0.3-0.3c0.9,1.8,2.7,2.8,5.1,2.8c0.1,0,0.1,0,0.2,0c0.9,0,1.7-0.1,2.4-0.3
		c0.7-0.2,1.5-0.4,2.2-0.8c0.4,0.4,1,0.7,1.5,0.8c0.5,0.1,1,0.2,1.5,0.2c0.5,0,1-0.1,1.5-0.2c1.2-0.3,2.1-1.1,2.6-2.3
		c0.1-0.3,0.3-0.7,0.6-1.4c0.2-0.4,0.3-0.8,0.5-1.3c0.1,0.6,0.3,1.2,0.6,1.7c0.4,0.8,1,1.5,1.7,2c0.8,0.6,1.8,1,3,1h0
		c1,0,2-0.2,3.2-0.8c0.9-0.4,1.7-1,2.7-1.8c0.2,0.2,0.4,0.4,0.6,0.6c-1,0.5-1.9,1.1-2.6,1.8c-0.9,0.9-1.6,2.1-2,3.5
		c-0.6,2-0.2,3.8,1.3,5.1c1.2,1.1,2.8,1.7,4.6,1.7l0.1,0c1.7,0,3.4-0.5,5.2-1.5c1.9-1,3.4-2.7,4.6-5.1l1.6-3.2
		c1.1-0.5,2.2-1,3.3-1.6c1-0.5,2-1.1,2.9-1.8c0.4,0.5,1,1,1.6,1.3c1.1,0.6,2.3,1,3.7,1c0.1,0,0.1,0,0.2,0c1.9,0,3.4-0.4,4.5-1.1
		c0.2-0.1,0.4-0.3,0.6-0.4c0.1,0.1,0.2,0.1,0.2,0.2c0.8,0.6,1.8,1,2.9,1c0.1,0,0.1,0,0.2,0c0.9,0,1.9-0.2,3-0.7c0.9-0.4,1.9-1.1,3-2
		c0.6,0.7,1.4,1.3,2.4,1.8c1,0.5,2.1,0.7,3.4,0.8c0.1,0,0.1,0,0.2,0c1.1,0,2.4-0.2,3.6-0.7c1.2-0.5,2.3-1.2,3.5-2.2
		c0.5,0.6,1.1,1.1,1.8,1.5c1.1,0.6,2.3,1,3.7,1c0.1,0,0.1,0,0.2,0c1.8,0,3.6-0.6,5.3-1.5c1.3-0.7,2.5-1.6,3.5-2.7
		c0.4,0.1,0.7,0.1,1.1,0.1c0.5,0,1-0.1,1.5-0.2c1.2-0.3,2.3-0.7,3.3-1.3c1-0.6,1.9-1.3,2.6-2c0.7-0.7,1.3-1.4,1.7-2
		C166.5,31.6,166.6,30.5,166.2,29.5z M115.3,34.8c0-0.1,0-0.2,0.1-0.3c0.1-0.5,0.4-1.1,0.7-1.8c0.3-0.7,0.8-1.4,1.3-2.1
		c0.5-0.7,1.1-1.3,1.6-1.9c0.5-0.5,1-0.9,1.5-1.2c0.1,0,0.1-0.1,0.2-0.1c0,0.1,0,0.1,0,0.2c-0.1,0.6-0.4,1.2-0.7,1.9
		c-0.3,0.7-0.7,1.3-1.2,2c0,0,0,0,0,0c-0.5,0.7-1.1,1.4-1.6,1.9c-0.5,0.5-1,0.9-1.5,1.2C115.5,34.7,115.4,34.8,115.3,34.8z
		 M95.9,35.3c0-0.1,0-0.2,0.1-0.3c0.1-0.5,0.4-1.1,0.7-1.8c0.3-0.7,0.8-1.4,1.3-2.1c0.5-0.7,1.1-1.3,1.6-1.9c0.5-0.5,1-0.9,1.5-1.2
		c0.1,0,0.1-0.1,0.2-0.1c0,0.1,0,0.1,0,0.2c-0.1,0.6-0.4,1.2-0.7,1.9c-0.3,0.7-0.7,1.4-1.2,2c0,0,0,0,0,0c-0.5,0.7-1.1,1.4-1.6,1.9
		c-0.5,0.5-1,0.9-1.5,1.2C96,35.2,95.9,35.2,95.9,35.3z M135.2,32.8c1.1-0.9,2.2-1.9,3.3-2.8c1-0.9,2.2-2,3.4-3.1
		c0,0,0.1-0.1,0.1-0.1c-0.5,0.9-1,1.7-1.4,2.7c-0.5,0.6-1.1,1.3-1.8,2.1c-0.7,0.8-1.5,1.6-2.3,2.2c-0.9,0.7-1.3,0.8-1.4,0.8
		c-0.1-0.2-0.1-0.4-0.1-0.6C135,33.6,135.1,33.2,135.2,32.8z M148.3,31.5C148.3,31.5,148.3,31.4,148.3,31.5c0.2-0.6,0.5-1.1,0.8-1.6
		c0.4-0.5,0.8-1,1.3-1.4c0.4-0.3,0.8-0.6,1.2-0.8c0.3-0.2,0.6-0.2,0.8-0.2l0,0c0,0,0,0,0.1,0c0,0,0,0,0,0.1c0.2,0.5,0,1.2-0.4,2.1
		c-0.3,0.6-0.6,1.2-0.9,1.7c-0.3,0.5-0.7,0.9-1.1,1.3c-0.4,0.3-0.8,0.6-1.2,0.8c-0.3,0.2-0.6,0.2-0.8,0.2l0,0c0,0,0,0-0.1,0
		c0,0,0,0,0-0.1C147.8,33.2,147.9,32.4,148.3,31.5z M48.4,34.3c0.2,0.1,0.5,0.1,0.8,0.1c0.1,0,0.2,0,0.2,0c-0.5,0.4-1,0.8-1.5,1.2
		C48.1,35.2,48.3,34.7,48.4,34.3z M56.7,22.8c-0.1,0.6-0.5,1.2-1.2,2c-0.7,0.8-1.8,1.4-3.2,1.9c-0.3,0.1-0.7,0.2-1,0.4
		c0.1-0.2,0.2-0.3,0.2-0.5c0.8-1.7,1.7-3.4,2.6-5c0.2,0,0.3,0,0.5,0c0.2,0,0.3,0,0.5,0c0.7,0,1.3,0.2,1.4,0.4
		C56.7,22.1,56.8,22.4,56.7,22.8z"/>
	<g>
		<path class="st1" d="M87.5,48.2c0.3,0.3,0.8,0.5,1.3,0.7c0,0,0,0-0.1,0c-0.9-0.4-1.4-1.3-1.3-2.3c0,0.1-0.1,0.3-0.1,0.4l0,0
			C87.1,47.9,87.3,48.1,87.5,48.2z"/>
		<path class="st1" d="M73.5,32.1c0.2-0.4,0.6-0.6,1-0.6c0.4,0,0.8,0,1.2,0.2c0.4,0.2,0.6,0.4,0.8,0.7c0.2,0.3,0.1,0.7-0.2,1
			c-0.4,0.5-0.9,1.2-1.6,2.1c-0.7,0.8-1.5,1.8-2.6,2.9c-0.7,0.7-1.3,1.2-1.9,1.7c-0.6,0.5-1.1,0.8-1.7,1.1c-0.6,0.3-1.2,0.5-1.8,0.7
			c-0.6,0.1-1.3,0.2-2,0.2c-2.1,0-3.3-0.8-3.7-2.5c-0.4-1.7,0.2-4,1.8-6.8c0.4-0.6,0.7-1.3,1.1-2.1c0.4-0.8,0.8-1.5,1.2-2.3
			c0.4-0.7,0.8-1.5,1.2-2.1c0.4-0.7,0.7-1.2,1-1.7c0.4-0.6,0.8-1,1.4-1.1c0.6-0.2,1.1-0.2,1.6,0c0.5,0.2,0.8,0.4,1.1,0.8
			c0.3,0.4,0.2,0.8-0.1,1.4c-0.4,0.8-0.9,1.7-1.5,2.8c-0.5,1.1-1,2-1.5,2.8c-0.4,0.8-0.9,1.6-1.3,2.4c-0.4,0.7-0.7,1.4-1,2.1
			c-0.3,0.6-0.4,1.1-0.5,1.6c-0.1,0.4,0,0.7,0.2,0.9c0.2,0.2,0.5,0.2,0.9,0.1c0.4-0.1,0.8-0.3,1.2-0.6c0.4-0.3,0.9-0.6,1.3-1
			c0.4-0.4,0.8-0.8,1.2-1.1c0.7-0.8,1.2-1.3,1.6-1.8C72.6,33.4,73,32.8,73.5,32.1z M75.7,18.3c-0.2,0.3-0.5,0.7-0.8,1
			c-0.3,0.3-0.6,0.6-0.8,0.8c-0.5,0.3-1.1,0.6-1.6,0.7c-0.6,0.1-1.1,0.2-1.4,0.1c-0.4-0.1-0.7-0.3-0.8-0.6c-0.2-0.3,0-0.8,0.3-1.4
			c0.1-0.2,0.3-0.6,0.5-1c0.2-0.4,0.5-0.8,0.7-1.1c0.3-0.5,0.8-0.8,1.3-0.9c0.6-0.1,1.1-0.1,1.6,0.1c0.5,0.2,0.9,0.4,1.1,0.8
			C76.1,17.2,76,17.7,75.7,18.3z"/>
		<path class="st1" d="M77.1,23.7c0.2-0.4,0.5-0.6,1-0.7c0.5-0.1,1.1-0.1,1.6,0c0.5,0.1,0.9,0.3,1.3,0.6c0.3,0.3,0.4,0.7,0.2,1.2
			l-0.4,0.7l0.2-0.2c1.1-1,2.1-1.7,2.9-2c0.8-0.3,1.5-0.5,2.1-0.4c0.6,0.1,1.1,0.3,1.5,0.7c0.4,0.4,0.7,0.9,1,1.4
			c0.4,0.8,0.4,1.7,0.1,2.7c-0.3,1-0.8,2.2-1.5,3.4c-0.4,0.9-0.9,1.8-1.4,2.6c-0.5,0.8-0.9,1.7-1.4,2.5c-0.2,0.5-0.3,0.8-0.3,0.9
			c0,0.1,0.1,0.2,0.3,0.1c0.2,0,0.4-0.1,0.6-0.3c0.2-0.1,0.5-0.3,0.7-0.5c0.9-0.7,1.8-1.5,2.6-2.5c0.9-0.9,1.5-1.7,2.1-2.4
			c0.2-0.4,0.6-0.6,1-0.6c0.4,0,0.8,0,1.2,0.2c0.4,0.2,0.6,0.4,0.8,0.8c0.2,0.3,0.1,0.7-0.1,1c-0.2,0.3-0.5,0.6-0.8,1.1
			c-0.3,0.5-0.7,1-1.2,1.5c-0.4,0.5-0.9,1.1-1.5,1.7c-0.5,0.6-1.1,1.1-1.7,1.6c-1.1,1-2.1,1.7-2.9,2.1c-0.9,0.4-1.6,0.6-2.3,0.6
			c-0.7,0-1.2-0.2-1.7-0.5c-0.5-0.4-0.8-0.8-1.1-1.3c-0.4-0.8-0.5-1.7-0.2-2.7c0.3-1,0.8-2.2,1.4-3.5c0.2-0.3,0.4-0.7,0.6-1.2
			c0.2-0.5,0.5-0.9,0.7-1.4c0.3-0.5,0.5-0.9,0.7-1.4c0.2-0.4,0.4-0.8,0.6-1.1c0.2-0.5,0.3-0.8,0.3-0.9c0-0.1-0.2-0.2-0.4-0.1
			c-0.2,0-0.5,0.1-0.8,0.3c-0.3,0.2-0.5,0.3-0.8,0.5c-0.6,0.5-1.3,1-2,1.6c-0.7,0.6-1.3,1.1-1.9,1.7c-0.4,1-0.8,2-1.2,3
			c-0.4,1-0.8,1.9-1.1,2.8c-0.3,0.9-0.6,1.6-0.9,2.2c-0.3,0.6-0.4,1.1-0.6,1.3c-0.3,0.6-0.7,1-1.3,1.1c-0.6,0.2-1.2,0.2-1.8,0
			c-0.6-0.2-1-0.5-1.3-1c-0.3-0.5-0.3-1.2,0.1-1.9c0.3-0.8,0.8-1.9,1.4-3.3c0.6-1.3,1.2-2.8,1.9-4.2c0.6-1.5,1.3-2.9,1.9-4.3
			C76.2,25.9,76.7,24.7,77.1,23.7z"/>
		<path class="st1" d="M97.7,40.7c-0.4,0.2-0.9,0.4-1.5,0.6c-0.5,0.2-1.2,0.2-2,0.3c-1.1,0-2-0.2-2.8-0.7c-0.8-0.5-1.4-1.2-1.8-2
			c-0.4-0.9-0.5-2-0.4-3.2c0.1-1.3,0.5-2.6,1.3-4.1c0.7-1.5,1.6-2.8,2.7-3.9c1.1-1.1,2.1-2,3.2-2.7c1.1-0.7,2.2-1.3,3.2-1.6
			c1-0.4,1.9-0.5,2.7-0.6c0.5,0,1,0,1.4,0.2c0.4,0.1,0.8,0.3,1.1,0.5c0.3,0.2,0.6,0.4,0.9,0.7c0.2-0.5,0.6-0.9,1.2-1.1
			c0.6-0.2,1.1-0.3,1.6-0.3c0.5,0,0.9,0.2,1.2,0.6c0.3,0.3,0.3,0.8-0.1,1.4c-0.3,0.7-0.7,1.5-1.2,2.5c-0.5,1-1,2-1.5,3
			c-0.5,1-1,1.9-1.4,2.8c-0.5,0.9-0.8,1.6-1,2L103,38c1.2-0.8,2.5-1.9,3.9-3.2c0.8-0.7,1.3-1.2,1.7-1.7c0.4-0.5,0.8-1.1,1.3-1.8
			c0.3-0.4,0.6-0.6,1.1-0.6c0.4,0,0.8,0,1.2,0.2c0.4,0.2,0.6,0.4,0.8,0.7c0.2,0.3,0.1,0.7-0.2,1c-0.2,0.3-0.5,0.6-0.8,1.1
			c-0.3,0.5-0.7,1-1.2,1.6c-0.4,0.6-0.9,1.1-1.5,1.7c-0.5,0.6-1.1,1.1-1.7,1.6c-0.9,0.8-2,1.5-3.3,2.2c-1.3,0.6-2.6,1.2-3.9,1.8
			l-1.9,3.9c-1,1.9-2.2,3.3-3.7,4.2c-1.5,0.8-2.9,1.2-4.2,1.2c-1.3,0-2.4-0.4-3.2-1.1c-0.8-0.7-1-1.7-0.7-3c0.3-1.1,0.8-1.9,1.4-2.6
			c0.7-0.6,1.5-1.2,2.4-1.6c0.9-0.5,2-0.9,3.2-1.2c1.2-0.4,2.4-0.8,3.8-1.4L97.7,40.7z M95.5,44.7c-1.4,0.6-2.6,1.2-3.6,1.7
			c-1,0.5-1.5,1-1.6,1.5c-0.1,0.3,0,0.6,0.3,0.7c0.3,0.1,0.7,0.1,1.1,0c0.4-0.1,0.9-0.4,1.5-0.8c0.5-0.4,1.1-1,1.5-1.9L95.5,44.7z
			 M100.9,33.2c0.6-0.8,1.1-1.6,1.5-2.4c0.4-0.8,0.6-1.6,0.8-2.2c0.2-0.7,0.2-1.3,0.2-1.8c-0.1-0.5-0.2-0.9-0.6-1.1
			c-0.3-0.2-0.8-0.3-1.3-0.2c-0.5,0.1-1.1,0.4-1.6,0.7c-0.6,0.4-1.2,0.9-1.8,1.5c-0.6,0.6-1.2,1.3-1.8,2.1c-0.6,0.8-1.1,1.6-1.5,2.4
			c-0.4,0.8-0.7,1.5-0.8,2.2c-0.2,0.7-0.2,1.3-0.1,1.8c0.1,0.5,0.3,0.9,0.6,1.1c0.3,0.2,0.7,0.3,1.2,0.2c0.5-0.1,1.1-0.3,1.7-0.7
			c0.6-0.4,1.2-0.9,1.8-1.5C99.7,34.7,100.3,34,100.9,33.2z"/>
		<path class="st1" d="M129.4,30.8c0.3-0.4,0.6-0.6,1.1-0.6c0.4,0,0.8,0,1.2,0.2c0.4,0.2,0.6,0.4,0.8,0.7c0.2,0.3,0.1,0.7-0.2,1
			c-0.2,0.3-0.5,0.6-0.8,1.1c-0.3,0.5-0.7,1-1.2,1.5c-0.5,0.5-0.9,1.1-1.5,1.7c-0.5,0.6-1.1,1.1-1.6,1.6c-1.1,1-2.1,1.7-2.9,2.1
			c-0.9,0.4-1.6,0.6-2.3,0.5c-0.7,0-1.2-0.2-1.7-0.6c-0.5-0.4-0.9-0.8-1.2-1.3c-0.6,0.4-1.3,0.9-2.1,1.3c-0.7,0.5-1.9,0.7-3.4,0.8
			c-1.1,0-2-0.2-2.8-0.7c-0.8-0.5-1.4-1.2-1.8-2c-0.4-0.9-0.5-2-0.4-3.2c0.1-1.3,0.5-2.6,1.3-4.1c0.7-1.5,1.6-2.8,2.7-3.9
			c1.1-1.1,2.1-2,3.2-2.7c1.1-0.7,2.2-1.3,3.2-1.6c1-0.4,1.9-0.5,2.7-0.6c0.5,0,1,0,1.4,0.2c0.4,0.1,0.8,0.3,1.1,0.5
			c0.3,0.2,0.6,0.4,0.9,0.7c0.2-0.5,0.6-0.9,1.2-1.1c0.6-0.2,1.1-0.3,1.6-0.3c0.5,0,0.9,0.2,1.2,0.6c0.3,0.3,0.3,0.8-0.1,1.4
			c-0.3,0.7-0.7,1.5-1.2,2.5c-0.5,1-1,2-1.5,3c-0.5,1-1,2-1.4,2.9c-0.5,0.9-0.8,1.5-1.1,2c-0.2,0.5-0.3,0.8-0.3,1
			c0.1,0.2,0.2,0.3,0.5,0.2c0.3,0,0.6-0.1,1-0.4c0.4-0.2,0.7-0.5,1.1-0.9c0.7-0.8,1.2-1.4,1.6-1.8C128.5,32.1,128.9,31.5,129.4,30.8
			z M120.4,32.7c0.6-0.8,1.1-1.6,1.5-2.4c0.4-0.8,0.6-1.6,0.8-2.2c0.2-0.7,0.2-1.3,0.2-1.8c-0.1-0.5-0.2-0.9-0.6-1.1
			c-0.3-0.2-0.8-0.3-1.3-0.2c-0.5,0.1-1.1,0.4-1.6,0.7c-0.6,0.4-1.2,0.9-1.8,1.5c-0.6,0.6-1.2,1.3-1.8,2.1c-0.6,0.8-1.1,1.6-1.5,2.4
			c-0.4,0.8-0.7,1.5-0.8,2.2c-0.2,0.7-0.2,1.3-0.1,1.8c0.1,0.5,0.3,0.9,0.6,1.1c0.3,0.2,0.7,0.3,1.2,0.2c0.5-0.1,1.1-0.3,1.7-0.7
			c0.6-0.4,1.2-0.9,1.8-1.5C119.2,34.3,119.8,33.5,120.4,32.7z"/>
		<path class="st1" d="M143.7,22.2c-1,1-2.2,2.1-3.3,3.2c-1.2,1.1-2.3,2.1-3.3,3c-1.2,1.1-2.5,2.1-3.7,3.2c-0.3,0.8-0.5,1.6-0.5,2.4
			c0,0.8,0.2,1.5,0.5,2c0.4,0.5,0.9,0.8,1.6,0.8c0.7,0,1.6-0.4,2.7-1.3c0.9-0.7,1.7-1.5,2.6-2.5c0.8-0.9,1.5-1.8,2.1-2.5
			c0.2-0.4,0.6-0.6,1-0.6c0.4,0,0.8,0,1.2,0.2c0.4,0.2,0.6,0.4,0.8,0.8c0.2,0.3,0.1,0.7-0.2,1c-0.2,0.3-0.5,0.6-0.8,1.1
			c-0.3,0.5-0.7,1-1.1,1.5c-0.4,0.5-0.9,1.1-1.5,1.7c-0.5,0.6-1.1,1.1-1.7,1.6c-1.1,1-2.2,1.7-3.2,2.1c-1.1,0.4-2.1,0.6-3,0.6
			c-0.9,0-1.8-0.2-2.5-0.6c-0.7-0.4-1.3-0.8-1.8-1.3c-0.5-0.6-0.8-1.3-1-2.1c-0.2-0.8-0.2-1.6-0.1-2.4c0.1-0.8,0.2-1.6,0.5-2.4
			c0.2-0.8,0.5-1.5,0.8-2.2c1-2.5,2.3-4.8,3.6-7.1c1.4-2.2,2.8-4.2,4.3-6.1c1.5-1.8,3-3.4,4.5-4.7c1.5-1.3,2.9-2.3,4.2-3
			c1-0.5,1.7-0.7,2.2-0.6c0.5,0.1,0.9,0.5,1.3,1.3c0.3,0.6,0.4,1.4,0.4,2.2c0,0.8-0.3,1.8-0.8,2.8c-0.5,1.1-1.2,2.2-2.1,3.5
			C146.5,19.3,145.3,20.7,143.7,22.2z M146.5,12.4c-1.7,1.4-3.1,2.7-4.3,4.2c-1.2,1.4-2.2,2.7-3,3.9c-1,1.4-1.7,2.7-2.4,4
			c2-1.9,3.7-3.7,5.2-5.3c0.6-0.7,1.2-1.4,1.8-2.1c0.6-0.7,1.1-1.4,1.5-2c0.4-0.6,0.8-1.1,1-1.6C146.5,13,146.6,12.6,146.5,12.4z"/>
		<path class="st1" d="M161.3,30c0.2-0.4,0.6-0.6,1-0.6c0.4,0,0.8,0,1.2,0.2c0.4,0.2,0.6,0.4,0.8,0.8c0.2,0.3,0.1,0.7-0.1,1.1
			c-0.3,0.5-0.8,1.1-1.4,1.7c-0.6,0.6-1.4,1.2-2.2,1.7c-0.8,0.5-1.8,0.8-2.7,1c-1,0.2-1.9,0.1-2.8-0.2c-1.2,1.3-2.5,2.4-3.9,3.2
			c-1.4,0.8-2.9,1.2-4.3,1.3c-1.1,0-2-0.2-2.8-0.7c-0.8-0.5-1.4-1.1-1.8-1.9c-0.4-0.8-0.6-1.8-0.7-2.9c0-1.1,0.2-2.3,0.6-3.6
			c0.5-1.3,1.1-2.5,1.9-3.6c0.8-1.1,1.7-2.1,2.7-3c1-0.9,2.1-1.6,3.2-2.1c1.1-0.5,2.2-0.8,3.3-0.8c1.1,0,2.1,0.2,2.8,0.7
			c0.8,0.5,1.4,1.1,1.8,2c0.4,0.8,0.6,1.8,0.7,2.9c0,1.1-0.2,2.3-0.6,3.6c-0.1,0.3-0.2,0.6-0.3,0.9c-0.1,0.3-0.3,0.6-0.4,0.9
			c0.6,0,1.3-0.2,2.1-0.7C160.1,31.3,160.8,30.8,161.3,30z M154.1,30.5c0.6-1.4,0.8-2.7,0.4-3.7c-0.4-1-1.1-1.5-2.1-1.5
			c-0.5,0-1.1,0.2-1.7,0.4c-0.6,0.3-1.2,0.7-1.7,1.1c-0.5,0.5-1.1,1-1.5,1.7c-0.5,0.6-0.9,1.3-1.1,2.1c-0.6,1.4-0.7,2.7-0.3,3.7
			c0.4,1,1.1,1.5,2.1,1.5c0.5,0,1.1-0.2,1.7-0.4c0.6-0.3,1.2-0.7,1.7-1.1c0.5-0.5,1-1,1.5-1.7C153.4,31.9,153.8,31.2,154.1,30.5z"/>
		<path class="st1" d="M64.3,31.2c0.3,0,0.6,0,0.8,0.1c0.2,0.1,0.3,0.3,0.3,0.4c0,0.2-0.1,0.3-0.2,0.5c-0.2,0.2-0.4,0.3-0.8,0.3
			c-0.9,0.1-1.8,0.2-2.7,0.4c0,0.1,0,0.3,0,0.4c0,0.1,0,0.2,0,0.4c-0.1,1.1-0.5,2.2-1.2,3.4c-0.7,1.1-1.6,2.2-2.7,3.2
			c-1.1,1-2.3,1.9-3.5,2.7c-1.3,0.8-2.5,1.4-3.6,1.9c-1.1,0.4-2.2,0.7-3.1,0.6c-0.9,0-1.5-0.3-1.8-0.9c-0.4-0.8-0.4-1.8,0-2.9
			c0.4-1.1,1.2-2.2,2.2-3.3c1.1-1.1,2.4-2.2,4-3.3c1.6-1,3.4-1.9,5.3-2.6c-0.2-0.4-0.4-0.7-0.7-1c-0.2-0.3-0.6-0.5-0.9-0.6
			c-0.4-0.1-0.9-0.1-1.5,0c-0.6,0.1-1.3,0.3-2.2,0.7c-1.1,0.5-2.1,0.7-2.7,0.6c-0.7,0-1-0.2-1.1-0.6c0-0.3,0.3-0.8,1.1-1.4
			c0.7-0.6,1.9-1.1,3.6-1.7c1.7-0.6,3.1-1.4,4-2.4c1-1,1.6-2,1.8-3c0.2-1,0-1.9-0.6-2.6c-0.6-0.7-1.6-1.2-3-1.2c-0.4,0-0.8,0-1.1,0
			c-0.4,0-0.8,0-1.2,0.1l-0.1,0.2c-1.1,1.9-2.2,3.9-3.1,6c-1,2.1-1.8,4.2-2.6,6.3c-0.8,2.1-1.4,4.2-2,6.3c-0.6,2.1-1,4-1.3,5.8
			c-0.2,0.8-0.4,1.5-0.7,2c-0.3,0.5-0.7,0.9-1,1.1c-0.3,0.2-0.6,0.2-0.8,0.1c-0.2-0.2-0.3-0.6-0.3-1.2c0.2-2.9,0.6-5.5,1.1-8.1
			c0.5-2.5,1.2-4.8,1.9-7c0.7-2.1,1.4-4.1,2.2-5.8c0.7-1.7,1.4-3.2,2-4.5c-1.1,0.4-2.2,1-3.2,1.6c-1,0.6-1.9,1.3-2.6,2
			c-0.7,0.7-1.3,1.5-1.7,2.3c-0.4,0.8-0.6,1.6-0.6,2.4c-1.2-0.7-1.8-1.6-1.8-2.8c-0.1-1.1,0.3-2.3,1.1-3.5c0.8-1.2,2-2.3,3.5-3.4
			c1.5-1.1,3.3-1.9,5.4-2.5c1.5-0.4,3-0.7,4.5-0.9c1.5-0.2,2.9-0.2,4.2,0c1.3,0.2,2.5,0.5,3.5,1c1,0.5,1.7,1.3,2.2,2.3
			c0.4,0.9,0.6,1.7,0.6,2.5c0,0.8-0.2,1.5-0.6,2.2c-0.3,0.7-0.7,1.3-1.3,1.8c-0.5,0.5-1,1-1.5,1.4c-0.5,0.4-0.9,0.7-1.3,0.9
			c-0.4,0.2-0.6,0.3-0.6,0.4c0,0,0.2,0,0.5,0.1c0.3,0.1,0.7,0.2,1.1,0.4c0.4,0.2,0.8,0.5,1.2,0.9c0.4,0.4,0.7,1,0.9,1.7
			c0.4-0.1,0.9-0.2,1.4-0.2C63.4,31.2,63.8,31.2,64.3,31.2z M49.6,41.8c0.2,0.2,0.6,0.3,1,0.3c0.5,0,1-0.2,1.5-0.5
			c0.6-0.3,1.2-0.6,1.8-1.1c0.6-0.5,1.2-1,1.7-1.7c0.5-0.7,1-1.4,1.3-2.2c0.4-0.8,0.6-1.6,0.7-2.5c-1.6,0.7-3,1.4-4.1,2.2
			c-1.1,0.8-2,1.6-2.6,2.4c-0.6,0.8-1.1,1.4-1.3,2C49.5,41.3,49.5,41.7,49.6,41.8z"/>
	</g>
</g>
</svg>
