<svg xmlns="http://www.w3.org/2000/svg" viewBox="0 0 112.04 112.04"><defs><style>.cls-1{fill:#c4c4c4;}.cls-2{fill:#fff;fill-rule:evenodd;}</style></defs><title>Asset 4</title><g id="Layer_2" data-name="Layer 2"><g id="Layer_1-2" data-name="Layer 1"><path id="_Path_" data-name="&lt;Path&gt;" class="cls-1" d="M112,56A56,56,0,1,1,56,0,56,56,0,0,1,112,56Z"/><path class="cls-2" d="M79,38.47c2.19,4,1.44,8.78.6,11.54-4.67,15.24-25.7,14.44-28.74,14.44a3.84,3.84,0,0,0-3.74,2.81l-2.29,9.91A3.72,3.72,0,0,1,41,80.49H33.7A2.19,2.19,0,0,0,36,83H42.9a3.73,3.73,0,0,0,3.79-3.32l2.24-9.9a3.89,3.89,0,0,1,3.79-2.86c3,0,24.07.85,28.74-14.39,1-3.41,1.87-9.63-2.47-14Z"/><path class="cls-2" d="M42.72,75,45,65.11a3.88,3.88,0,0,1,3.79-2.85c3,0,24.07.84,28.74-14.4,1.68-5.56,2.9-18.79-18.37-18.79H43.79a4,4,0,0,0-4,3.28l-10,43.27s-.42,2.71,2.29,2.71h6.87A3.73,3.73,0,0,0,42.72,75Zm5.75-25.15L50.52,41s.66-2.38,2.76-2.71a23.47,23.47,0,0,1,6.59.23c5.93,1.12,4.67,6.73,4.67,6.73C63.38,54,49.82,52.82,49.82,52.82a2.25,2.25,0,0,1-1.35-3Z"/></g></g></svg>