<?xml version="1.0" encoding="utf-8"?>
<!-- Generator: Adobe Illustrator 22.1.0, SVG Export Plug-In . SVG Version: 6.00 Build 0)  -->
<svg version="1.1" id="Layer_1" xmlns="http://www.w3.org/2000/svg" xmlns:xlink="http://www.w3.org/1999/xlink" x="0px" y="0px"
	 viewBox="0 0 120 120" style="enable-background:new 0 0 120 120;" xml:space="preserve">
<style type="text/css">
	.st0{fill:#FBC442;}
	.st1{fill:#FFFFFF;}
</style>
<g>
	<circle class="st0" cx="60.1" cy="60.9" r="56"/>
	<path class="st1" d="M87,42.6l-7.2-1.7c-1.9-0.4-3.8-1.1-5.5-2l-11.7-5.6c-1.6-0.8-3.5-0.8-5.1,0.1l-6.6,3.4
		c-4.5,2.3-9.3,4-14.3,5.1l-3.3,0.7c-1.8,0.4-2.9,2.2-2.6,4C40,92.9,61.9,89,61.9,89c20-2.5,26.1-32.7,27.6-42.6
		C89.8,44.6,88.7,43,87,42.6z M78.2,52.9L60.8,73c-0.5,0.6-1.3,0.7-1.9,0.2L46,62.9c-0.6-0.4-0.6-1.3-0.2-1.8l4.3-5
		c0.5-0.5,1.3-0.6,1.8-0.1l6.1,5.4c0.5,0.4,1.3,0.4,1.8,0l14.2-12.5c0.5-0.4,1.2-0.4,1.7,0.1l2.4,2.4C78.6,51.7,78.6,52.5,78.2,52.9
		z"/>
</g>
</svg>
